<svg xmlns="http://www.w3.org/2000/svg" xmlns:xlink="http://www.w3.org/1999/xlink" width="500" zoomAndPan="magnify" viewBox="0 0 375 374.999991" height="500" preserveAspectRatio="xMidYMid meet" version="1.0"><defs><g/><clipPath id="f73e90173c"><path d="M 9.78125 11.957031 L 369.023438 11.957031 L 369.023438 366.847656 L 9.78125 366.847656 Z M 9.78125 11.957031 " clip-rule="nonzero"/></clipPath><clipPath id="84e57e1136"><path d="M 27.03125 11.957031 L 351.773438 11.957031 C 356.347656 11.957031 360.734375 13.773438 363.96875 17.007812 C 367.203125 20.242188 369.023438 24.632812 369.023438 29.207031 L 369.023438 349.597656 C 369.023438 354.171875 367.203125 358.558594 363.96875 361.796875 C 360.734375 365.03125 356.347656 366.847656 351.773438 366.847656 L 27.03125 366.847656 C 22.457031 366.847656 18.070312 365.03125 14.835938 361.796875 C 11.601562 358.558594 9.78125 354.171875 9.78125 349.597656 L 9.78125 29.207031 C 9.78125 24.632812 11.601562 20.242188 14.835938 17.007812 C 18.070312 13.773438 22.457031 11.957031 27.03125 11.957031 Z M 27.03125 11.957031 " clip-rule="nonzero"/></clipPath></defs><g clip-path="url(#f73e90173c)"><g clip-path="url(#84e57e1136)"><path fill="#000000" d="M 9.78125 11.957031 L 369.023438 11.957031 L 369.023438 366.847656 L 9.78125 366.847656 Z M 9.78125 11.957031 " fill-opacity="1" fill-rule="nonzero"/></g></g><g fill="#ffffff" fill-opacity="1"><g transform="translate(130.269752, 208.045038)"><g><path d="M 84.402344 -161.039062 L 83.898438 -161.039062 L 83.898438 -159.535156 C 83.898438 -158.28125 83.648438 -157.78125 83.398438 -157.78125 L 83.398438 -160.535156 C 83.398438 -161.789062 83.148438 -163.042969 82.898438 -164.292969 C 82.648438 -165.546875 82.148438 -166.296875 81.394531 -166.546875 C 81.144531 -166.296875 81.144531 -166.046875 81.144531 -165.796875 C 80.394531 -166.046875 79.640625 -166.546875 78.890625 -167.046875 C 78.140625 -167.550781 77.640625 -167.800781 77.386719 -167.800781 C 76.886719 -167.800781 76.386719 -167.800781 75.886719 -167.800781 C 75.382812 -167.800781 74.882812 -167.800781 74.632812 -167.800781 C 73.882812 -167.800781 73.128906 -168.050781 72.628906 -168.300781 C 72.128906 -168.550781 71.378906 -168.800781 70.625 -168.800781 C 68.875 -168.800781 67.121094 -168.300781 65.617188 -167.046875 C 64.113281 -165.796875 62.613281 -164.542969 61.109375 -163.042969 C 59.605469 -161.539062 58.355469 -160.035156 57.351562 -158.535156 C 56.351562 -157.03125 55.597656 -155.777344 54.847656 -155.027344 C 52.59375 -153.273438 51.089844 -151.019531 50.089844 -148.265625 C 49.085938 -145.511719 47.835938 -143.003906 46.582031 -140.75 C 43.828125 -135.992188 41.324219 -130.234375 38.820312 -123.722656 C 36.316406 -117.210938 32.558594 -108.945312 27.800781 -99.175781 C 26.046875 -90.410156 23.542969 -81.644531 20.535156 -72.878906 C 17.53125 -64.113281 15.527344 -55.597656 14.777344 -47.085938 C 14.023438 -42.828125 13.273438 -38.320312 12.773438 -33.808594 C 12.273438 -29.300781 12.019531 -25.296875 12.019531 -22.039062 C 12.019531 -15.527344 13.023438 -9.765625 15.277344 -5.007812 C 17.53125 -0.25 20.789062 3.507812 25.042969 6.261719 C 25.042969 6.011719 25.042969 6.011719 25.296875 6.011719 C 25.546875 6.011719 25.546875 6.011719 25.546875 5.761719 C 26.796875 7.011719 28.050781 7.765625 29.300781 8.015625 C 29.554688 7.765625 29.804688 7.511719 30.054688 7.511719 C 30.304688 7.511719 30.554688 7.511719 30.804688 7.261719 C 31.054688 7.511719 31.054688 7.765625 31.054688 7.765625 C 31.054688 7.765625 31.054688 8.015625 31.304688 8.265625 L 31.808594 7.261719 C 31.808594 7.511719 32.058594 7.765625 32.558594 8.015625 C 33.058594 8.265625 33.558594 8.515625 34.0625 8.765625 C 34.0625 8.515625 34.0625 8.265625 34.3125 8.015625 C 34.5625 7.765625 34.5625 7.765625 34.5625 7.765625 C 34.5625 7.765625 34.5625 7.765625 34.8125 7.511719 C 34.8125 8.265625 35.3125 8.765625 36.566406 8.765625 C 37.816406 8.765625 38.820312 8.765625 39.570312 8.765625 C 41.324219 8.765625 42.574219 8.265625 43.328125 7.261719 C 43.328125 7.511719 43.078125 7.011719 42.828125 6.011719 L 43.578125 6.761719 C 43.828125 7.011719 44.078125 7.011719 44.328125 7.011719 L 45.332031 7.011719 C 45.582031 7.011719 45.832031 6.761719 45.832031 6.511719 L 45.582031 6.261719 C 45.582031 5.761719 46.082031 5.511719 47.085938 5.761719 C 48.085938 6.011719 48.835938 5.257812 49.589844 3.757812 L 50.089844 4.257812 C 50.339844 4.257812 51.84375 3.003906 54.847656 0.25 C 57.851562 -2.503906 60.859375 -5.511719 64.113281 -9.015625 C 67.371094 -12.523438 70.375 -16.027344 73.128906 -19.285156 C 75.886719 -22.539062 77.136719 -24.792969 77.136719 -26.046875 C 77.136719 -27.296875 76.886719 -28.050781 76.386719 -28.300781 C 75.886719 -28.550781 75.382812 -28.550781 74.882812 -28.550781 C 74.132812 -28.550781 73.382812 -28.050781 72.378906 -27.046875 C 71.378906 -26.046875 70.375 -24.792969 69.375 -23.542969 C 68.371094 -22.289062 67.621094 -21.039062 66.871094 -19.785156 C 66.117188 -18.53125 65.617188 -17.78125 65.367188 -17.53125 C 57.351562 -9.515625 50.339844 -3.757812 44.078125 -0.5 C 42.828125 -0.5 41.574219 -1.253906 40.574219 -2.753906 C 39.570312 -4.257812 38.820312 -5.511719 38.570312 -6.261719 L 38.066406 -5.761719 C 38.066406 -6.511719 38.066406 -7.261719 38.320312 -8.265625 C 38.570312 -9.265625 38.570312 -10.019531 38.570312 -10.769531 C 38.570312 -11.769531 38.320312 -12.773438 37.816406 -13.523438 C 37.316406 -14.277344 37.066406 -15.277344 37.066406 -16.277344 C 37.816406 -20.035156 38.320312 -23.042969 38.570312 -25.296875 C 38.820312 -27.550781 39.070312 -29.300781 39.320312 -30.804688 C 39.570312 -32.308594 39.820312 -33.808594 40.320312 -35.3125 C 40.824219 -36.816406 41.324219 -38.820312 42.074219 -41.324219 C 42.828125 -42.574219 43.328125 -43.578125 43.578125 -44.578125 C 43.828125 -45.582031 44.078125 -46.582031 44.578125 -47.585938 C 45.082031 -48.585938 45.582031 -49.839844 46.332031 -51.339844 C 47.085938 -52.84375 48.085938 -55.097656 49.339844 -57.851562 C 49.339844 -58.105469 49.339844 -58.355469 49.339844 -58.605469 C 49.339844 -58.855469 49.339844 -59.105469 49.339844 -59.605469 C 49.339844 -59.855469 49.589844 -60.105469 49.839844 -60.359375 C 50.089844 -60.609375 50.339844 -60.859375 50.339844 -61.109375 C 50.339844 -61.359375 50.339844 -61.609375 50.089844 -61.859375 C 50.839844 -62.363281 51.59375 -63.113281 52.09375 -64.363281 C 52.59375 -65.617188 53.09375 -67.121094 53.597656 -68.621094 C 54.097656 -70.125 54.347656 -71.628906 54.597656 -73.128906 C 54.847656 -74.632812 55.097656 -75.636719 55.347656 -76.386719 C 58.855469 -85.152344 62.863281 -93.917969 67.621094 -102.433594 C 70.375 -107.191406 72.628906 -112.449219 74.382812 -118.210938 C 76.136719 -123.972656 78.140625 -129.230469 80.394531 -133.988281 C 80.894531 -134.492188 81.144531 -134.992188 81.144531 -135.242188 C 81.144531 -135.492188 80.894531 -135.742188 80.644531 -135.992188 C 80.644531 -136.242188 80.644531 -136.492188 80.894531 -136.492188 C 81.144531 -136.492188 81.394531 -136.746094 81.644531 -136.996094 C 81.394531 -137.246094 81.144531 -137.246094 80.894531 -137.246094 C 80.644531 -137.246094 80.394531 -137.246094 80.144531 -137.496094 C 80.144531 -137.746094 80.144531 -137.746094 80.394531 -137.746094 C 80.644531 -137.746094 80.894531 -137.746094 81.144531 -137.496094 C 81.644531 -139.75 82.148438 -141.253906 82.398438 -142.253906 C 82.648438 -143.257812 82.898438 -144.257812 83.148438 -145.257812 C 83.398438 -146.261719 83.648438 -147.765625 83.648438 -149.769531 C 83.648438 -151.769531 83.648438 -154.777344 83.648438 -159.035156 Z M 79.894531 -156.53125 C 79.390625 -156.53125 79.140625 -156.027344 78.890625 -155.277344 C 78.640625 -154.527344 78.640625 -153.523438 78.640625 -152.523438 L 78.640625 -149.265625 C 78.640625 -148.265625 79.140625 -147.765625 79.894531 -147.765625 C 79.140625 -146.261719 78.640625 -145.511719 78.390625 -145.511719 C 78.140625 -145.761719 78.140625 -146.011719 78.140625 -146.261719 C 78.140625 -146.511719 78.140625 -146.761719 78.140625 -147.011719 C 78.140625 -147.261719 78.140625 -147.511719 78.140625 -147.765625 C 78.140625 -146.511719 77.890625 -145.007812 77.386719 -143.257812 C 76.886719 -141.503906 76.386719 -139.75 75.636719 -137.996094 C 74.882812 -136.242188 74.132812 -134.742188 73.382812 -133.238281 C 72.628906 -131.734375 72.128906 -130.734375 71.878906 -129.980469 C 72.378906 -129.980469 72.628906 -129.980469 72.628906 -129.730469 C 71.878906 -129.480469 71.128906 -128.480469 70.375 -126.976562 C 69.625 -125.472656 68.875 -123.722656 68.371094 -121.71875 C 67.871094 -119.714844 67.371094 -117.960938 66.871094 -116.207031 C 66.367188 -114.453125 66.117188 -113.203125 65.867188 -112.703125 C 65.367188 -110.949219 64.617188 -108.945312 63.613281 -106.691406 C 62.613281 -104.4375 61.609375 -102.183594 60.609375 -99.929688 C 59.605469 -97.675781 58.605469 -95.671875 57.351562 -93.917969 C 56.101562 -92.164062 54.847656 -90.914062 53.597656 -90.410156 C 53.597656 -91.164062 53.597656 -91.914062 53.597656 -92.414062 C 53.597656 -92.917969 53.597656 -93.417969 53.597656 -94.167969 C 53.597656 -94.917969 53.34375 -95.671875 53.09375 -96.671875 C 52.84375 -97.675781 52.59375 -98.675781 52.59375 -99.679688 C 52.59375 -102.683594 52.84375 -105.6875 53.34375 -108.945312 C 53.847656 -112.199219 54.597656 -115.207031 55.347656 -118.210938 C 56.101562 -121.214844 56.851562 -123.972656 57.601562 -126.476562 C 58.355469 -128.980469 59.105469 -130.984375 59.605469 -132.488281 C 60.359375 -134.742188 61.359375 -137.496094 62.363281 -140.75 C 63.363281 -144.007812 64.363281 -147.011719 65.617188 -150.019531 C 66.871094 -153.023438 68.121094 -155.527344 69.375 -157.53125 C 70.625 -159.535156 71.878906 -160.535156 73.128906 -160.535156 C 73.382812 -160.535156 73.632812 -160.535156 73.632812 -160.535156 C 73.632812 -160.535156 73.882812 -160.535156 74.132812 -160.535156 C 74.382812 -160.535156 74.632812 -160.535156 74.632812 -160.535156 C 74.632812 -160.535156 74.632812 -160.535156 74.882812 -160.535156 C 75.132812 -160.535156 75.636719 -160.285156 76.386719 -160.035156 C 76.386719 -159.785156 76.386719 -159.535156 76.136719 -159.285156 C 76.386719 -159.535156 76.886719 -159.785156 77.640625 -160.035156 C 77.386719 -159.535156 77.136719 -159.035156 76.886719 -158.535156 C 76.636719 -158.03125 76.386719 -157.53125 76.386719 -157.03125 Z M 79.390625 -148.015625 L 78.140625 -148.015625 L 78.140625 -149.015625 C 78.140625 -149.769531 78.390625 -150.019531 78.640625 -150.019531 C 78.890625 -149.769531 79.140625 -149.015625 79.390625 -148.015625 Z M 79.390625 -148.015625 "/></g></g></g><g fill="#ffffff" fill-opacity="1"><g transform="translate(185.368032, 208.045038)"><g><path d="M 10.519531 -12.019531 C 10.269531 -11.769531 10.019531 -11.519531 9.765625 -11.519531 C 9.515625 -11.519531 9.265625 -11.269531 9.015625 -11.019531 C 6.261719 -5.257812 4.257812 0.25 3.003906 5.761719 C 1.753906 11.269531 0.75 16.78125 0 22.039062 C -2.253906 29.050781 -4.257812 36.316406 -6.011719 44.078125 C -7.765625 51.84375 -9.515625 59.355469 -11.269531 66.871094 C -12.773438 72.378906 -14.023438 77.890625 -15.277344 83.148438 C -16.277344 87.90625 -17.28125 92.917969 -18.03125 97.925781 C -18.785156 102.933594 -19.285156 107.441406 -19.285156 111.449219 C -19.285156 112.703125 -19.035156 114.203125 -18.785156 115.957031 C -18.53125 117.710938 -18.03125 118.960938 -17.28125 119.714844 C -17.03125 119.464844 -16.78125 119.214844 -16.53125 119.214844 C -14.277344 119.214844 -12.773438 118.960938 -12.019531 118.210938 C -11.269531 117.460938 -10.769531 117.210938 -10.519531 117.210938 C -10.519531 117.460938 -10.519531 117.460938 -10.269531 117.460938 C -10.019531 117.710938 -9.765625 117.710938 -9.515625 117.710938 C -9.265625 117.710938 -8.765625 117.460938 -8.015625 116.957031 C -7.261719 116.457031 -6.511719 116.207031 -5.761719 116.207031 C -6.011719 116.207031 -5.761719 115.957031 -5.007812 115.457031 C -4.257812 114.957031 -3.507812 114.203125 -2.503906 113.453125 C -1.503906 112.703125 -0.75 111.699219 0 110.449219 C 0.75 109.195312 1.253906 107.691406 1.253906 105.9375 C 1.503906 106.191406 1.503906 106.191406 1.503906 106.191406 C 1.503906 106.191406 1.503906 106.441406 1.753906 106.691406 C 2.003906 105.6875 2.253906 104.6875 2.503906 103.9375 L 3.507812 101.429688 L 3.253906 101.179688 C 3.003906 101.429688 2.753906 101.429688 2.753906 101.429688 C 2.753906 101.429688 2.503906 101.429688 2.253906 101.683594 C 2.753906 100.179688 3.003906 99.175781 3.253906 98.675781 C 3.507812 98.175781 4.007812 97.925781 4.757812 97.675781 C 4.507812 98.675781 4.257812 99.679688 4.007812 100.429688 C 4.257812 100.179688 4.507812 99.929688 4.757812 99.929688 C 5.007812 99.929688 5.257812 99.679688 5.511719 99.425781 C 4.757812 101.179688 4.257812 102.933594 3.757812 104.6875 C 6.261719 103.433594 7.511719 102.683594 7.511719 102.433594 C 7.511719 102.183594 7.511719 102.183594 7.511719 102.183594 C 7.511719 102.183594 7.511719 102.183594 7.511719 101.933594 C 8.265625 100.679688 8.765625 99.679688 9.015625 99.175781 C 8.765625 98.925781 8.515625 98.675781 8.265625 98.675781 C 9.015625 98.175781 9.265625 97.675781 9.265625 97.171875 C 9.265625 96.921875 9.265625 96.671875 9.015625 96.421875 L 10.019531 95.421875 C 9.765625 95.421875 9.265625 95.171875 8.515625 94.917969 C 9.265625 94.667969 9.765625 94.417969 10.019531 94.167969 C 10.269531 93.917969 10.269531 93.667969 10.269531 93.167969 C 10.269531 92.664062 10.269531 92.164062 10.519531 91.664062 C 10.769531 91.164062 11.269531 90.410156 12.273438 89.410156 C 12.019531 88.910156 11.769531 88.660156 11.519531 88.660156 C 12.523438 88.15625 13.023438 87.65625 13.273438 87.15625 C 13.523438 86.65625 13.773438 86.152344 14.023438 85.402344 L 13.523438 84.402344 C 13.773438 84.402344 13.773438 84.402344 13.773438 84.402344 C 13.773438 84.402344 13.773438 84.402344 14.023438 84.402344 C 14.277344 84.402344 14.527344 84.148438 15.027344 83.398438 C 15.527344 82.648438 16.027344 81.894531 16.53125 80.894531 C 17.03125 79.894531 17.53125 78.890625 18.03125 77.640625 C 18.53125 76.386719 18.785156 75.382812 19.035156 74.632812 C 21.289062 72.378906 23.292969 69.375 25.296875 65.617188 C 27.296875 61.859375 29.050781 57.851562 30.554688 53.597656 C 32.058594 49.339844 33.308594 45.082031 34.3125 40.824219 C 35.3125 36.566406 36.0625 32.808594 36.816406 29.554688 L 36.816406 30.054688 C 37.066406 30.054688 37.316406 29.050781 37.816406 27.296875 C 38.320312 25.546875 38.820312 23.292969 39.570312 20.285156 C 40.320312 17.28125 40.824219 14.023438 41.324219 10.519531 C 41.824219 7.011719 42.074219 3.757812 42.074219 0.5 C 42.074219 -0.25 42.074219 -1.253906 42.074219 -2.253906 C 42.074219 -3.253906 42.074219 -4.257812 42.074219 -5.007812 C 42.324219 -6.011719 42.574219 -7.011719 43.078125 -8.015625 C 43.578125 -9.015625 43.828125 -10.019531 43.828125 -10.769531 C 44.578125 -14.527344 45.082031 -18.28125 45.332031 -22.039062 C 45.582031 -25.796875 46.332031 -29.554688 47.335938 -33.308594 C 47.835938 -37.566406 48.585938 -41.574219 49.339844 -45.582031 C 50.089844 -49.589844 50.839844 -54.097656 51.339844 -59.355469 C 51.339844 -61.609375 50.839844 -63.363281 50.089844 -64.617188 C 49.339844 -65.867188 48.335938 -67.371094 47.335938 -69.125 L 47.335938 -68.875 L 46.082031 -70.125 C 45.332031 -71.128906 44.328125 -72.128906 43.078125 -73.128906 C 41.824219 -74.132812 40.320312 -75.132812 38.820312 -76.136719 C 37.316406 -77.136719 35.5625 -77.640625 33.808594 -77.640625 C 33.058594 -77.640625 32.058594 -77.136719 30.804688 -76.386719 C 31.304688 -75.886719 31.554688 -75.382812 31.554688 -74.632812 C 31.554688 -73.882812 31.054688 -73.128906 30.054688 -72.628906 C 29.050781 -72.128906 28.050781 -71.628906 27.296875 -71.378906 C 27.550781 -70.875 27.550781 -70.375 27.550781 -69.875 C 27.550781 -68.621094 27.046875 -66.367188 26.296875 -63.113281 C 25.546875 -59.855469 24.542969 -56.101562 23.292969 -51.84375 C 22.039062 -47.585938 20.535156 -43.078125 19.035156 -38.570312 C 17.53125 -34.0625 16.027344 -30.054688 14.527344 -26.546875 C 14.277344 -25.546875 13.773438 -24.292969 13.023438 -23.042969 L 11.019531 -19.035156 C 10.269531 -17.78125 9.765625 -16.53125 9.265625 -15.277344 C 8.765625 -14.023438 8.515625 -13.023438 8.515625 -12.273438 C 8.515625 -12.019531 8.765625 -11.769531 9.015625 -11.519531 Z M 43.078125 -95.171875 C 43.328125 -95.421875 43.578125 -95.421875 43.828125 -95.421875 C 45.332031 -95.421875 46.332031 -94.917969 46.832031 -93.667969 C 47.085938 -93.917969 47.335938 -93.917969 47.335938 -93.917969 C 47.335938 -93.917969 47.585938 -93.917969 47.835938 -94.167969 L 47.835938 -92.414062 C 49.839844 -92.414062 51.339844 -92.664062 52.09375 -93.167969 C 52.84375 -93.667969 53.34375 -94.167969 53.597656 -94.917969 C 53.847656 -95.671875 54.097656 -96.421875 54.347656 -97.171875 C 54.597656 -97.925781 55.097656 -98.425781 55.851562 -98.925781 L 55.597656 -99.425781 C 55.347656 -99.175781 55.097656 -99.175781 55.097656 -99.175781 C 55.097656 -99.175781 54.847656 -99.175781 54.597656 -98.925781 C 54.847656 -99.929688 55.097656 -100.679688 55.097656 -100.929688 C 55.097656 -100.679688 55.347656 -100.179688 55.597656 -99.425781 C 55.851562 -99.929688 55.851562 -100.929688 55.851562 -102.183594 L 55.851562 -104.9375 C 55.851562 -105.1875 55.597656 -106.191406 55.097656 -107.941406 C 54.597656 -109.695312 53.847656 -110.449219 53.09375 -110.449219 C 52.84375 -110.449219 52.59375 -110.195312 52.34375 -109.945312 C 51.84375 -110.195312 51.59375 -110.449219 51.59375 -110.699219 L 51.84375 -111.199219 C 51.84375 -111.699219 51.84375 -111.949219 51.59375 -112.199219 L 51.59375 -111.949219 C 51.59375 -111.699219 50.839844 -111.949219 49.589844 -112.703125 C 48.335938 -113.453125 47.335938 -113.703125 46.582031 -113.703125 C 42.828125 -113.703125 40.320312 -112.449219 38.820312 -110.195312 C 37.316406 -107.941406 35.8125 -105.1875 34.3125 -102.183594 C 34.3125 -100.429688 35.3125 -98.675781 37.066406 -96.921875 L 37.566406 -97.925781 C 37.566406 -97.675781 37.566406 -97.675781 37.816406 -97.675781 C 37.816406 -97.425781 37.816406 -97.171875 37.816406 -96.921875 C 37.816406 -96.671875 37.816406 -96.421875 37.816406 -96.171875 C 37.816406 -96.421875 38.066406 -96.421875 38.320312 -96.421875 C 38.570312 -95.421875 38.820312 -94.417969 39.320312 -93.667969 C 39.570312 -94.417969 39.820312 -94.917969 40.320312 -94.917969 C 40.824219 -94.917969 41.324219 -94.917969 41.824219 -95.171875 Z M 41.824219 -95.171875 L 41.824219 -93.417969 C 42.574219 -93.667969 43.578125 -94.167969 44.578125 -94.917969 C 43.578125 -95.171875 43.078125 -95.421875 42.828125 -95.421875 C 42.574219 -95.421875 42.324219 -95.421875 42.074219 -95.171875 Z M 41.824219 -95.171875 "/></g></g></g></svg>